<svg xmlns="http://www.w3.org/2000/svg" viewBox="0 0 49.7 151.4">
	<path d="M34.2 122.2l-9.3-11.9 -16 5.7 -3.3 22.6c-0.2 1.4 0.4 2.8 1.6 3.5 0.7 0.4 1.1 1.3 1.3 2.5 0.2 1.5 1.4 2.7 3 3l26.3 3.8c1.5 0.2 3.1-0.6 3.7-2 0.5-1.1 1.2-1.8 1.9-2 1.3-0.4 2.3-1.5 2.5-2.9l3.8-26.3 -5.2-4L34.2 122.2z" />
	<path d="M36.2 67.2c-0.9-0.7-1.7-2.1-2.2-3.7 -0.4-1.4-1.8-2.2-3.2-1.9L4 67.2C2.6 67.5 1.6 68.8 1.8 70.3c0.2 1.7 0 3.2-0.5 4.3 -1.2 2.4-1.6 4.9-1 7.3l5.7 27 13.1-10.8 12.8 8 6.9-11.2 6.3 1.9L40.1 73.5C39.6 71.1 38.2 68.9 36.2 67.2z" />
</svg>